# xmcd
#
# Track frame offsets: 
#        150
#        14808
#        38289
#        57374
#        70959
#        89543
#        112438
#        136211
#        148572
#        165903
#
# Disc length: 2735 seconds
#
# Revision: 0
# Processed by: cddbd v1.5.2PL0 Copyright (c) Steve Scherf et al.
# Submitted via: ExactAudioCopy v1.0b3
#
DISCID=8b0aad0a
DTITLE=Cyril Neville - Brand New Blues
DYEAR=2009
DGENRE=Blues
TTITLE0=I Found Joy
TTITLE1=Brand New Blues
TTITLE2=Shake Your Gumbo
TTITLE3=I'll Take Care of You
TTITLE4=Cream Them Beans
TTITLE5=Cheatin and Lyin
TTITLE6=Mean Boss Blues
TTITLE7=Blue Blue Water
TTITLE8=Don't Move My Mountain
TTITLE9=Slave Driver
EXTD=
EXTT0=
EXTT1=
EXTT2=
EXTT3=
EXTT4=
EXTT5=
EXTT6=
EXTT7=
EXTT8=
EXTT9=
PLAYORDER=
